<svg width="35" height="35" viewBox="0 0 35 35" fill="none" xmlns="http://www.w3.org/2000/svg">
<path fill-rule="evenodd" clip-rule="evenodd" d="M24.0942 6.45092C22.2059 3.61114 19.5573 1.92437 16.224 1.19885C14.6857 0.863576 12.8004 1.05106 12.7296 1.06267C11.1454 1.24649 9.62171 1.67154 8.25312 2.48072C3.86765 5.07072 1.71613 8.92 2.03004 14.023C2.21447 17.0234 3.49634 19.5695 5.64724 21.6648C7.45371 23.4242 9.62293 24.496 12.1109 24.9046C13.52 25.1402 14.9605 25.1129 16.3596 24.824C16.8067 24.7311 17.1077 24.463 17.2146 24.016C17.4155 23.1793 16.7303 22.5326 15.8277 22.6951C13.645 23.0871 11.5552 22.808 9.57407 21.8046C8.39346 21.2113 7.34476 20.3857 6.49076 19.3774C5.63677 18.3691 4.99506 17.1988 4.60406 15.9367C4.21307 14.6745 4.08083 13.3464 4.21527 12.0319C4.34971 10.7174 4.74806 9.44358 5.38647 8.2867C8.11327 3.31311 14.5764 1.63306 19.3179 4.75621C22.7952 7.04696 24.2774 10.3552 23.7504 14.4878C23.4175 17.0979 22.0917 19.1792 20.0483 20.8171C19.382 21.3515 19.3325 22.0306 19.9151 22.6529C20.4493 23.2258 20.9835 23.7972 21.5176 24.3672C24.0708 27.097 26.6233 29.8279 29.1753 32.5598C29.6919 33.1131 30.3246 33.4227 31.0825 33.4538C32.2294 33.5009 33.2346 32.87 33.7128 31.8178C34.1739 30.8034 33.9449 29.6302 33.1064 28.7563C30.2287 25.7467 27.3423 22.7449 24.4472 19.7508C24.2334 19.5292 24.2255 19.3899 24.377 19.1456C25.3464 17.5737 25.9165 15.7884 26.0375 13.9455C26.2317 11.2376 25.6039 8.71969 24.0942 6.45092ZM31.4813 30.2275C31.6181 30.3704 31.7384 30.5145 31.7476 30.7368C31.725 30.9524 31.6254 31.1368 31.4104 31.2278C31.308 31.2762 31.1923 31.2891 31.0817 31.2644C30.9712 31.2397 30.8719 31.179 30.7997 31.0916C30.1463 30.3954 29.4938 29.6992 28.8424 29.003C26.7058 26.7206 24.5697 24.438 22.4343 22.1552C22.1689 21.8721 22.1705 21.8706 22.4573 21.599L22.4581 21.5982C22.8493 21.2309 22.8496 21.2312 23.2151 21.6156L23.216 21.6166C25.9703 24.4873 28.7254 27.3576 31.4813 30.2275ZM12.9233 15.4659C12.924 15.6126 12.9246 15.7592 12.9246 15.9058C12.9246 16.3724 12.924 16.8396 12.921 17.3086C12.9119 17.4711 12.9339 17.6338 12.9857 17.788C13.079 18.0269 13.2521 18.2262 13.4756 18.352C13.6992 18.4778 13.9593 18.5223 14.212 18.4781C14.4646 18.4333 14.6933 18.3008 14.8578 18.104C15.0223 17.9071 15.1122 17.6586 15.1116 17.4021C15.123 16.407 15.123 15.4124 15.1116 14.4182C15.1091 14.1952 15.1622 14.1232 15.3961 14.1268C16.3417 14.1398 17.2873 14.1357 18.2329 14.1315L18.3275 14.1311C18.9938 14.1275 19.5031 13.6444 19.5031 13.0282C19.5019 12.3998 19.0109 11.9448 18.3208 11.9448C18.2273 11.9445 18.1338 11.9442 18.0403 11.9439C17.1677 11.941 16.2951 11.938 15.4224 11.9491C15.1867 11.9491 15.1097 11.888 15.1134 11.6437C15.1259 10.8211 15.1228 9.99801 15.1198 9.17487C15.1192 9.03372 15.1187 8.89257 15.1183 8.75142C15.1164 8.05155 14.6535 7.56299 14.0068 7.56299C13.4407 7.56299 12.8978 8.06743 12.9173 8.74715C12.9338 9.30201 12.9311 9.85727 12.9284 10.4125C12.9264 10.8216 12.9244 11.2306 12.9301 11.6394C12.9338 11.8837 12.8593 11.9479 12.6199 11.9448C11.9114 11.9354 11.2029 11.9368 10.4944 11.9383C10.2367 11.9388 9.9791 11.9393 9.72148 11.9393C9.51628 11.9387 9.31475 11.954 9.13153 12.0566C8.91386 12.171 8.7407 12.355 8.63956 12.5792C8.53843 12.8033 8.51512 13.0549 8.57335 13.2938C8.63438 13.5323 8.77324 13.7436 8.96793 13.8943C9.16262 14.045 9.40201 14.1264 9.64819 14.1256C10.655 14.1346 11.6617 14.1346 12.6681 14.1256C12.8672 14.1238 12.9332 14.1824 12.9283 14.3833C12.92 14.7438 12.9217 15.1049 12.9233 15.4659Z" fill="#017CC1"/>
</svg>
