<svg width="221" height="74" viewBox="0 0 221 74" fill="none" xmlns="http://www.w3.org/2000/svg">
<path d="M207.935 20.5996V35.4878L186.383 35.4917V20.5996H179.84V42.72H180.603C188.383 42.7162 196.162 42.7085 203.941 42.6969C205.453 42.6949 206.965 42.6904 208.477 42.6859C210.527 42.6798 212.577 42.6737 214.628 42.6739V45.2385H220.501V35.4272H214.69C214.606 35.2976 214.606 35.0651 214.606 34.6479V21.48C214.606 21.2676 214.593 21.0533 214.58 20.8504C214.575 20.7644 214.57 20.6805 214.566 20.5996H207.935Z" fill="#00578A"/>
<path d="M132.182 29.3056V42.6516H125.578V20.6069C127.313 20.6069 129.024 20.6069 130.733 20.6165C130.971 20.6531 131.201 20.7331 131.41 20.8528C137.304 23.3592 143.195 25.8726 149.081 28.3931C149.316 28.5044 149.574 28.56 149.834 28.5557C150.094 28.5514 150.35 28.4872 150.581 28.3682C156.283 25.8438 161.993 23.3368 167.71 20.847C168.062 20.6978 168.439 20.6176 168.821 20.6107C170.365 20.5857 171.908 20.6107 173.51 20.6107V42.6804H166.939V29.3787C166.58 29.5227 166.337 29.6111 166.104 29.7149C160.954 31.9946 155.806 34.2794 150.662 36.5693C150.433 36.6897 150.179 36.7552 149.921 36.7605C149.662 36.7658 149.406 36.711 149.173 36.6001C143.811 34.2666 138.44 31.9497 133.062 29.6495C132.802 29.5285 132.533 29.4401 132.182 29.3056Z" fill="#00578A"/>
<path d="M84.6484 20.5996H119.503V21.6744C119.503 23.3924 119.467 25.1104 119.519 26.8285C119.541 27.552 119.287 27.7047 118.608 27.7028C109.839 27.6824 101.069 27.6779 92.2994 27.6894H91.2476V42.4111H84.6484V20.5996Z" fill="#00578A"/>
<path d="M84.5156 53.5857V49.1426H87.747V49.7878H85.3382V53.5857H84.5156Z" fill="#151515"/>
<path d="M90.5771 53.5849C90.1792 53.5946 89.7859 53.499 89.4381 53.308C89.1162 53.1219 88.8561 52.8473 88.6897 52.5176C88.5038 52.139 88.4123 51.7221 88.4228 51.3015C88.4113 50.8778 88.5028 50.4574 88.6897 50.0758C88.8561 49.7462 89.1162 49.4715 89.4381 49.2854C89.7856 49.0936 90.1791 48.9979 90.5771 49.0086C90.9762 48.9987 91.3708 49.0942 91.7199 49.2854C92.0427 49.47 92.3025 49.7451 92.4664 50.0758C92.6502 50.4549 92.7403 50.8718 92.7294 51.292C92.7408 51.7153 92.6507 52.1352 92.4664 52.5176C92.3025 52.8484 92.0427 53.1235 91.7199 53.308C91.3704 53.4983 90.9761 53.5938 90.5771 53.5849ZM90.5771 52.951C90.7599 52.9575 90.9418 52.9232 91.1093 52.8504C91.2767 52.7777 91.4253 52.6685 91.544 52.531C91.7876 52.2484 91.9094 51.8354 91.9094 51.292C91.9094 50.7485 91.7876 50.3387 91.544 50.0625C91.424 49.927 91.275 49.8197 91.1077 49.7483C90.9405 49.677 90.7592 49.6434 90.5771 49.6501C90.3949 49.6431 90.2136 49.6766 90.0462 49.748C89.8789 49.8193 89.7299 49.9268 89.6102 50.0625C89.3704 50.3374 89.2505 50.7472 89.2505 51.292C89.2505 51.8367 89.3704 52.2497 89.6102 52.531C89.7286 52.6687 89.8772 52.778 90.0447 52.8508C90.2122 52.9236 90.3942 52.9578 90.5771 52.951Z" fill="#151515"/>
<path d="M94.0144 55.4705V50.145C94.0144 49.9732 94.0144 49.7977 93.9946 49.6201C93.9749 49.4426 93.9651 49.2651 93.9414 49.0876H94.7301L94.8287 50.118H94.7301C94.813 49.7859 95.0197 49.4961 95.3097 49.3056C95.6237 49.1021 95.9941 48.9984 96.3705 49.0085C96.7436 49.0004 97.1115 49.096 97.4312 49.2844C97.7406 49.4751 97.9855 49.751 98.1351 50.0774C98.3096 50.4675 98.3944 50.8905 98.3836 51.3162C98.3943 51.7432 98.3095 52.1673 98.1351 52.5588C97.9868 52.8876 97.7417 53.1656 97.4312 53.3576C97.1115 53.546 96.7436 53.6417 96.3705 53.6336C95.9986 53.6422 95.633 53.5384 95.3235 53.3364C95.0361 53.1443 94.8267 52.8596 94.732 52.5318H94.8306V55.4705H94.0144ZM96.1832 52.9929C96.3714 53.0005 96.559 52.9662 96.7318 52.8927C96.9045 52.8191 97.0581 52.7083 97.1808 52.5685C97.428 52.2829 97.5515 51.8655 97.5515 51.3162C97.5515 50.7669 97.428 50.3527 97.1808 50.0736C97.0568 49.9358 96.9028 49.8268 96.7302 49.7547C96.5576 49.6826 96.3707 49.6491 96.1832 49.6568C95.9975 49.6498 95.8126 49.6836 95.642 49.7557C95.4714 49.8278 95.3194 49.9365 95.1974 50.0736C94.9529 50.3514 94.8306 50.7656 94.8306 51.3162C94.8306 51.8668 94.9529 52.2842 95.1974 52.5685C95.319 52.7087 95.4717 52.8198 95.6439 52.8934C95.8162 52.967 96.0033 53.001 96.1911 52.9929H96.1832Z" fill="#151515"/>
<path d="M101.478 53.5849C101.08 53.5944 100.686 53.4988 100.339 53.3081C100.018 53.1211 99.7586 52.8466 99.5921 52.5176C99.4062 52.1391 99.3147 51.7221 99.3252 51.3015C99.3136 50.8778 99.4052 50.4574 99.5921 50.0758C99.7586 49.7468 100.018 49.4724 100.339 49.2854C100.686 49.0938 101.08 48.9982 101.478 49.0086C101.877 48.9984 102.271 49.094 102.62 49.2854C102.944 49.4699 103.204 49.745 103.369 50.0758C103.552 50.4551 103.642 50.8718 103.632 51.292C103.642 51.7152 103.552 52.1349 103.369 52.5176C103.204 52.8485 102.944 53.1236 102.62 53.3081C102.271 53.4986 101.877 53.5941 101.478 53.5849ZM101.478 52.951C101.66 52.9576 101.842 52.9232 102.01 52.8504C102.177 52.7777 102.326 52.6685 102.444 52.531C102.687 52.2485 102.808 51.8354 102.808 51.292C102.808 50.7485 102.687 50.3386 102.444 50.0625C102.324 49.9271 102.175 49.8199 102.008 49.7485C101.841 49.6772 101.66 49.6435 101.478 49.65C101.295 49.643 101.114 49.6764 100.947 49.7477C100.779 49.8191 100.63 49.9267 100.511 50.0625C100.27 50.3374 100.149 50.7472 100.149 51.292C100.149 51.8367 100.27 52.2497 100.511 52.531C100.629 52.6688 100.778 52.7783 100.945 52.8511C101.113 52.9238 101.295 52.958 101.478 52.951Z" fill="#151515"/>
<path d="M104.578 54.6628V52.9112H105.066C105.277 52.5915 105.426 52.2369 105.507 51.8648C105.605 51.3939 105.65 50.9141 105.644 50.4335V49.1426H108.849V52.9112H109.56V54.6628H108.867V53.5254H105.271V54.6628H104.578ZM105.831 52.9188H108.095V49.7568H106.358V50.5776C106.359 51.0094 106.314 51.4402 106.225 51.8629C106.148 52.2338 106.012 52.5902 105.821 52.9188H105.831Z" fill="#151515"/>
<path d="M112.595 53.5848C112.183 53.5949 111.777 53.4994 111.416 53.308C111.083 53.1214 110.814 52.8429 110.643 52.508C110.45 52.1212 110.356 51.6948 110.368 51.2651C110.356 50.8434 110.451 50.4254 110.647 50.0489C110.826 49.7221 111.099 49.4532 111.433 49.2757C111.792 49.0914 112.193 48.9994 112.599 49.0084C112.891 49.0077 113.182 49.0568 113.457 49.1535C113.714 49.2377 113.947 49.3804 114.135 49.5697L113.856 50.1329C113.691 49.9741 113.493 49.85 113.276 49.7683C113.078 49.692 112.867 49.6518 112.654 49.6499C112.458 49.64 112.262 49.6722 112.081 49.7442C111.9 49.8161 111.737 49.926 111.604 50.0661C111.351 50.3448 111.225 50.7477 111.225 51.2746C111.195 51.7155 111.329 52.1521 111.604 52.5042C111.735 52.6478 111.897 52.7611 112.078 52.8355C112.26 52.9099 112.457 52.9434 112.654 52.9337C112.864 52.9314 113.072 52.8926 113.269 52.8192C113.488 52.7397 113.689 52.6175 113.858 52.4603L114.137 53.014C113.945 53.2079 113.708 53.3539 113.445 53.4397C113.172 53.535 112.885 53.5841 112.595 53.5848Z" fill="#151515"/>
<path d="M115.215 53.5857V49.1426H116.015V50.9801H116.832L118.279 49.1426H119.165L117.484 51.3008L117.271 51.055C117.427 51.0676 117.579 51.1106 117.718 51.1817C117.854 51.26 117.976 51.3599 118.079 51.4774C118.22 51.6406 118.347 51.8153 118.458 51.9997L119.389 53.5799H118.512L117.698 52.2109C117.626 52.0758 117.536 51.9511 117.43 51.8403C117.347 51.7537 117.245 51.6879 117.131 51.6483C116.996 51.6104 116.855 51.5929 116.715 51.5965H116.015V53.5742L115.215 53.5857Z" fill="#151515"/>
<path d="M122.217 53.5849C121.819 53.5946 121.425 53.499 121.077 53.308C120.755 53.1219 120.495 52.8473 120.329 52.5176C120.143 52.1389 120.052 51.7219 120.064 51.3015C120.051 50.8779 120.142 50.4576 120.329 50.0758C120.495 49.7462 120.755 49.4715 121.077 49.2854C121.425 49.0936 121.819 48.9979 122.217 49.0086C122.616 48.9985 123.011 49.094 123.36 49.2854C123.683 49.47 123.943 49.7451 124.107 50.0758C124.291 50.4549 124.381 50.8718 124.37 51.292C124.381 51.7153 124.291 52.1352 124.107 52.5176C123.943 52.8484 123.683 53.1235 123.36 53.308C123.011 53.4986 122.616 53.5941 122.217 53.5849ZM122.217 52.951C122.4 52.9575 122.582 52.9232 122.749 52.8504C122.917 52.7777 123.065 52.6685 123.184 52.531C123.428 52.2484 123.55 51.8354 123.55 51.292C123.55 50.7485 123.428 50.3387 123.184 50.0625C123.064 49.927 122.915 49.8197 122.748 49.7483C122.58 49.677 122.399 49.6434 122.217 49.6501C122.035 49.6431 121.853 49.6766 121.686 49.748C121.518 49.8193 121.369 49.9268 121.249 50.0625C121.01 50.3374 120.89 50.7472 120.89 51.292C120.89 51.8367 121.01 52.2497 121.249 52.531C121.368 52.6687 121.517 52.778 121.684 52.8508C121.852 52.9236 122.034 52.9578 122.217 52.951Z" fill="#151515"/>
<path d="M125.582 53.5763V49.1228H126.338V52.8258H126.09L128.931 49.1324H129.621V53.586H128.866V49.8849H129.121L126.272 53.586L125.582 53.5763ZM127.602 48.7167C127.356 48.7195 127.111 48.6744 126.884 48.5839C126.669 48.4985 126.478 48.3669 126.324 48.199C126.16 48.0162 126.04 47.7998 125.974 47.5658L126.446 47.3964C126.528 47.6433 126.683 47.861 126.891 48.0219C127.101 48.1578 127.35 48.2252 127.602 48.2144C127.855 48.2221 128.106 48.155 128.32 48.0219C128.538 47.8585 128.708 47.6412 128.812 47.3926L129.257 47.5523C129.142 47.9063 128.91 48.2138 128.599 48.428C128.303 48.6186 127.956 48.7192 127.602 48.7167Z" fill="#151515"/>
<path d="M133.523 53.5857V49.1426H134.205L135.878 52.0496L137.558 49.1426H138.236V53.5857H137.513V50.045H137.709L136.08 52.8714H135.675L134.048 50.0354H134.245V53.5857H133.523Z" fill="#151515"/>
<path d="M141.743 53.5855C141.035 53.5855 140.475 53.3831 140.064 52.9783C139.654 52.5755 139.45 52.0237 139.45 51.3096C139.439 50.8885 139.531 50.471 139.72 50.0934C139.888 49.7625 140.148 49.4858 140.469 49.2953C140.806 49.0995 141.192 49.0004 141.583 49.0089C141.946 48.9968 142.306 49.0868 142.619 49.2685C142.905 49.4416 143.131 49.6975 143.266 50.0017C143.422 50.356 143.497 50.7399 143.488 51.1263V51.3898H140.078V50.9144H142.939L142.789 51.0289C142.812 50.6501 142.704 50.2748 142.482 49.9655C142.373 49.8366 142.235 49.7349 142.079 49.6686C141.923 49.6023 141.753 49.5732 141.583 49.5836C141.393 49.5735 141.203 49.6084 141.029 49.6854C140.855 49.7624 140.702 49.8793 140.582 50.0265C140.332 50.3781 140.208 50.8033 140.232 51.2332V51.3134C140.232 51.8518 140.367 52.2586 140.636 52.5335C140.784 52.6755 140.96 52.7855 141.153 52.8565C141.346 52.9275 141.551 52.9579 141.757 52.9459C142.009 52.9485 142.26 52.9104 142.5 52.8332C142.744 52.7487 142.969 52.6191 143.164 52.4514L143.43 53.0051C143.213 53.1956 142.957 53.3387 142.681 53.4251C142.379 53.5302 142.063 53.5844 141.743 53.5855Z" fill="#151515"/>
<path d="M144.297 54.6628V52.9112H144.797C145.013 52.5915 145.166 52.2369 145.249 51.8648C145.349 51.3939 145.396 50.9141 145.389 50.4335V49.1426H148.685V52.9112H149.413V54.6628H148.685V53.5254H145.017V54.6628H144.297ZM145.581 52.9188H147.894V49.7568H146.113V50.5776C146.114 51.0094 146.068 51.4402 145.977 51.8629C145.904 52.2328 145.771 52.5892 145.581 52.9188Z" fill="#151515"/>
<path d="M150.355 53.5761V49.1426H151.111V52.8289H150.866L153.704 49.1522H154.395V53.5857H153.639V49.9013H153.894L151.048 53.5857L150.355 53.5761Z" fill="#151515"/>
<path d="M159.763 54.7974V53.6331H155.875V49.1426H156.68V53.0005H158.933V49.1426H159.737V53.0005H160.453V54.7936L159.763 54.7974Z" fill="#151515"/>
<path d="M161.531 53.5761V49.1426H162.286V52.8289H162.041L164.878 49.1522H165.57V53.5857H164.815V49.9013H165.07L162.223 53.5857L161.531 53.5761Z" fill="#151515"/>
<path d="M167.051 53.5857V49.1426H167.87V50.9801H170.276V49.1426H171.09V53.5857H170.276V51.6156H167.87V53.5857H167.051Z" fill="#151515"/>
<path d="M174.534 53.5848C174.122 53.5949 173.714 53.4994 173.353 53.308C173.019 53.1219 172.749 52.8433 172.579 52.508C172.385 52.1214 172.29 51.695 172.302 51.2651C172.29 50.8433 172.386 50.4252 172.583 50.0489C172.76 49.724 173.03 49.4555 173.361 49.2757C173.72 49.0914 174.123 48.9994 174.53 49.0084C174.823 49.0077 175.114 49.0568 175.39 49.1535C175.647 49.2377 175.88 49.3804 176.069 49.5697L175.787 50.1329C175.622 49.9745 175.425 49.8505 175.209 49.7683C175.009 49.6918 174.797 49.6516 174.583 49.6499C174.387 49.6403 174.192 49.6727 174.01 49.7446C173.829 49.8165 173.666 49.9263 173.534 50.0661C173.279 50.3448 173.153 50.7477 173.154 51.2746C173.124 51.7155 173.259 52.1521 173.534 52.5042C173.664 52.6477 173.826 52.7609 174.008 52.8352C174.189 52.9096 174.386 52.9433 174.583 52.9337C174.794 52.9319 175.002 52.8931 175.199 52.8192C175.419 52.7401 175.62 52.6179 175.789 52.4603L176.071 53.014C175.878 53.2079 175.641 53.3539 175.378 53.4397C175.107 53.5338 174.821 53.5829 174.534 53.5848Z" fill="#151515"/>
<path d="M177.148 53.5857V49.1426H177.963V50.9801H178.777L180.224 49.1426H181.109L179.42 51.3008L179.204 51.055C179.36 51.0671 179.512 51.1102 179.651 51.1817C179.788 51.2594 179.911 51.3594 180.015 51.4774C180.154 51.6416 180.281 51.8162 180.393 51.9997L181.322 53.5799H180.448L179.634 52.2109C179.562 52.0758 179.472 51.9511 179.366 51.8403C179.283 51.7537 179.18 51.6879 179.066 51.6483C178.931 51.6105 178.791 51.593 178.65 51.5965H177.963V53.5742L177.148 53.5857Z" fill="#151515"/>
<path d="M182.129 53.5761V49.1426H182.884V52.8289H182.639L185.476 49.1522H186.168V53.5857H185.423V49.9013H185.678L182.831 53.5857L182.129 53.5761Z" fill="#151515"/>
<path d="M187.648 53.5763V49.1283H188.403V52.8267H188.162L190.996 49.138H191.688V53.586H190.927V49.8895H191.182L188.338 53.586L187.648 53.5763ZM189.665 48.7227C189.421 48.7273 189.179 48.6849 188.952 48.5978C188.738 48.5121 188.547 48.3807 188.393 48.2134C188.231 48.0299 188.111 47.814 188.043 47.581L188.516 47.4118C188.598 47.6517 188.749 47.8633 188.952 48.0211C189.16 48.1574 189.408 48.2248 189.659 48.2134C189.913 48.2213 190.164 48.1543 190.378 48.0211C190.597 47.8583 190.766 47.6412 190.868 47.3926L191.314 47.5521C191.198 47.9059 190.967 48.213 190.655 48.4268C190.362 48.6188 190.018 48.7218 189.665 48.7227Z" fill="#151515"/>
<path d="M199.483 54.7974V53.6331H195.594V49.1426H196.399V53.0005H198.651V49.1426H199.456V53.0005H200.171V54.7936L199.483 54.7974Z" fill="#151515"/>
<path d="M203.272 53.5855C202.563 53.5855 202.004 53.3834 201.594 52.9791C201.182 52.5767 200.978 52.0256 200.978 51.3124C200.965 50.8903 201.057 50.4716 201.243 50.092C201.413 49.762 201.672 49.4857 201.993 49.2949C202.331 49.0991 202.718 49.0001 203.11 49.0089C203.473 48.9968 203.832 49.0867 204.146 49.2682C204.432 49.4422 204.657 49.6975 204.793 50.0005C204.948 50.3546 205.024 50.7378 205.015 51.1236V51.3868H201.608V50.912H204.468L204.318 51.0264C204.341 50.6481 204.233 50.2732 204.011 49.9643C203.902 49.8356 203.764 49.7341 203.608 49.6678C203.453 49.6016 203.283 49.5725 203.114 49.5829C202.923 49.5727 202.733 49.6074 202.559 49.6844C202.385 49.7613 202.232 49.8781 202.112 50.0253C201.859 50.3752 201.734 50.8005 201.758 51.2304V51.3105C201.758 51.8483 201.891 52.264 202.16 52.5291C202.308 52.6706 202.484 52.7803 202.677 52.8512C202.87 52.922 203.076 52.9526 203.281 52.941C203.534 52.9437 203.785 52.9057 204.025 52.8285C204.269 52.744 204.494 52.6146 204.689 52.4471L204.955 53.0001C204.738 53.1899 204.484 53.3328 204.208 53.4196C203.907 53.526 203.591 53.5821 203.272 53.5855Z" fill="#151515"/>
<path d="M206.23 53.5857V49.1426H207.039V50.9801H209.453V49.1426H210.27V53.5857H209.453V51.6156H207.039V53.5857H206.23Z" fill="#151515"/>
<path d="M212.697 53.5857V49.7878H211.078V49.1426H215.117V49.7878H213.501V53.5857H212.697Z" fill="#151515"/>
<path d="M215.995 55.4705V50.145C215.995 49.9732 215.995 49.7977 215.977 49.6201C215.959 49.4426 215.945 49.2651 215.922 49.0876H216.718L216.817 50.118H216.718C216.801 49.7859 217.007 49.4961 217.296 49.3056C217.61 49.1021 217.98 48.9983 218.356 49.0085C218.728 49.0004 219.095 49.096 219.414 49.2844C219.722 49.4752 219.966 49.7511 220.114 50.0774C220.29 50.4671 220.375 50.8902 220.364 51.3162C220.375 51.7434 220.29 52.1678 220.114 52.5588C219.967 52.8874 219.723 53.1654 219.414 53.3576C219.095 53.546 218.728 53.6417 218.356 53.6336C217.985 53.6424 217.619 53.5387 217.31 53.3364C217.023 53.1443 216.815 52.8596 216.72 52.5318H216.819V55.4705H215.995ZM218.158 52.9929C218.345 53.0005 218.532 52.9662 218.705 52.8927C218.877 52.8191 219.03 52.7083 219.153 52.5685C219.4 52.2829 219.522 51.8661 219.522 51.3162C219.522 50.7663 219.4 50.3514 219.153 50.0736C219.029 49.9358 218.875 49.8268 218.703 49.7547C218.531 49.6826 218.345 49.6492 218.158 49.6568C217.972 49.6498 217.788 49.6836 217.618 49.7557C217.448 49.8278 217.296 49.9365 217.174 50.0736C216.925 50.3476 216.801 50.7618 216.801 51.3162C216.801 51.8706 216.923 52.288 217.167 52.5685C217.289 52.7097 217.442 52.8215 217.616 52.8952C217.789 52.9688 217.977 53.0022 218.166 52.9929H218.158Z" fill="#151515"/>
<path d="M11.6789 44.9406C11.5967 42.8936 13.1737 41.7959 13.8903 44.805C14.6069 47.814 15.5803 54.5282 15.5803 54.5282C15.5803 54.5282 11.797 53.8655 11.8381 53.5968C11.8792 53.3281 11.6789 44.9406 11.6789 44.9406Z" fill="#00578A"/>
<path d="M8.0428 40.0185C7.94217 37.4912 9.89804 36.1473 10.7857 39.8502C11.6733 43.5531 12.8861 51.8362 12.8861 51.8362C12.8861 51.8362 8.18987 51.0201 8.24148 50.6886C8.29308 50.3571 8.0428 40.0185 8.0428 40.0185Z" fill="#007D99"/>
<path d="M4.38815 36.3918C4.27708 33.5808 6.40761 32.0807 7.3719 36.2053C8.33619 40.3298 9.65641 49.5475 9.65641 49.5475C9.65641 49.5475 3.5425 43.1588 3.59803 42.7959C3.65357 42.433 4.38815 36.3918 4.38815 36.3918Z" fill="#01A6A0"/>
<path d="M29.0765 73.1099C28.2136 59.5535 14.1377 59.4677 8.09469 54.6597C2.05169 49.8517 0.724122 37.5789 1.09686 34.8253C1.4696 32.0716 2.93248 30.7115 4.14772 34.5574C5.36295 38.4033 6.49904 45.3295 11.0843 48.5297C15.6695 51.73 24.2607 52.1511 19.3714 48.6165C12.9888 44.0024 14.0941 39.5426 15.6101 38.61C16.7695 37.8968 19.4837 42.8897 23.2647 44.9288C27.0457 46.9679 32.7024 48.5719 35.3193 54.9239C38.2941 62.1448 29.0765 73.1099 29.0765 73.1099Z" fill="#00C6BF"/>
<path d="M57.7616 6.02584C53.5957 3.18033 46.6738 1.55216 39.8819 5.92378C37.1284 8.54727 34.8134 12.1022 33.2531 16.7188C33.2531 16.7188 25.268 7.92704 12.4924 12.7223C-0.283225 17.5176 0.509667 31.37 0.509667 31.37C0.509667 31.37 4.18607 20.0901 16.4798 19.3755C28.7736 18.661 35.1748 30.5137 35.1748 30.5137C35.1748 30.5137 36.7357 18.5052 47.8848 15.6469C58.167 13.0209 64.3547 21.1032 61.7542 31.1633C66.1852 20.9246 64.3827 10.5455 57.7616 6.02584Z" fill="#00578A"/>
<path d="M52.7383 48.9835C52.7383 48.9835 42.2129 36.4876 23.6562 43.1603C23.6562 43.1603 33.1394 42.9591 37.4585 53.7892C40.1462 60.528 33.6234 70.4159 33.6234 70.4159C33.6234 70.4159 45.0923 60.9892 52.7383 48.9835Z" fill="#00578A"/>
<path d="M71.8442 8.42509C65.5524 -0.83138 49.8254 -3.57641 39.8519 5.89651C46.6489 1.53438 53.576 3.15902 57.745 5.99835C64.3787 10.5082 66.1647 20.8545 61.7508 31.0863C61.4792 32.1239 61.1312 33.1402 60.7098 34.1268C56.4591 44.1294 51.3869 50.4956 51.3869 50.4956C43.9648 61.7001 33.3516 70.5508 33.3516 70.5508C74.4601 53.3264 82.6291 24.305 71.8442 8.42509Z" fill="#00C6BF"/>
<path style="mix-blend-mode:multiply" opacity="0.29" d="M57.1432 16.5767C62.649 19.9561 62.7495 26.7855 61.636 31.1007C66.0441 20.8715 64.2468 10.5278 57.6448 6.01906C53.4908 3.18045 46.5888 1.55622 39.8164 5.91725C45.2872 2.7324 58.0228 0.145825 57.1432 16.5767Z" fill="#00578A"/>
<path style="mix-blend-mode:multiply" opacity="0.29" d="M48.9875 45.6426C46.7541 53.6628 37.6416 66.439 33.6211 70.4161C33.6211 70.4161 43.3591 62.485 52.7398 48.7616C51.5784 47.6922 50.3276 46.5337 48.9875 45.6426Z" fill="#00578A"/>
</svg>
